<svg xmlns="http://www.w3.org/2000/svg" width="73.795" height="73.795" viewBox="0 0 73.795 73.795">
  <g id="counsel" transform="translate(-2 -2)">
    <path id="Path_4545" data-name="Path 4545" d="M65.368,2H43.23A1.23,1.23,0,0,0,42,3.23V17.989a1.23,1.23,0,0,0,1.23,1.23h2.46v3.69A1.23,1.23,0,0,0,47.6,23.932l7.066-4.713h10.7a1.23,1.23,0,0,0,1.23-1.23V3.23A1.23,1.23,0,0,0,65.368,2Zm-1.23,14.759H54.3a1.237,1.237,0,0,0-.683.207L48.15,20.61V17.989a1.23,1.23,0,0,0-1.23-1.23H44.46V4.46H64.138Z" transform="translate(9.197 0)" fill="#7fb539"/>
    <path id="Path_4546" data-name="Path 4546" d="M56,6h2.46V8.46H56Z" transform="translate(12.415 0.92)" fill="#7fb539"/>
    <path id="Path_4547" data-name="Path 4547" d="M50,6h4.92V8.46H50Z" transform="translate(11.036 0.92)" fill="#7fb539"/>
    <path id="Path_4548" data-name="Path 4548" d="M46,6h2.46V8.46H46Z" transform="translate(10.116 0.92)" fill="#7fb539"/>
    <path id="Path_4549" data-name="Path 4549" d="M46,10h7.379v2.46H46Z" transform="translate(10.116 1.839)" fill="#7fb539"/>
    <path id="Path_4550" data-name="Path 4550" d="M47.225,38.6h.063a3.69,3.69,0,0,0,3.69-3.69v-1.23a3.69,3.69,0,0,0-2.246-3.395L50.617,28.4a1.23,1.23,0,0,0,.36-.87v-2.46A11.083,11.083,0,0,0,39.909,14H30.069A11.083,11.083,0,0,0,19,25.069v2.46a1.23,1.23,0,0,0,.36.869l1.886,1.886A3.69,3.69,0,0,0,19,33.679v1.23a3.69,3.69,0,0,0,3.69,3.69h.063a12.3,12.3,0,0,0,24.475,0Zm1.293-3.69a1.23,1.23,0,0,1-1.23,1.23v-3.69a1.23,1.23,0,0,1,1.23,1.23ZM21.46,25.069a8.619,8.619,0,0,1,8.609-8.609h9.839a8.619,8.619,0,0,1,8.609,8.609V27.02l-1.23,1.23v-.721a1.23,1.23,0,0,0-.907-1.187l-13.529-3.69a1.241,1.241,0,0,0-.808.057L23.435,26.4a1.23,1.23,0,0,0-.745,1.13v.721l-1.23-1.23Zm0,9.839v-1.23a1.23,1.23,0,0,1,1.23-1.23v3.69A1.23,1.23,0,0,1,21.46,34.909Zm13.529,12.3a9.85,9.85,0,0,1-9.839-9.839V28.34l7.469-3.2,12.209,3.327v8.9a9.85,9.85,0,0,1-9.839,9.839Z" transform="translate(3.909 2.759)" fill="#7fb539"/>
    <path id="Path_4551" data-name="Path 4551" d="M46.277,44.609H31.518a22.422,22.422,0,0,0-4.92.545v-3a1.23,1.23,0,0,0-1.23-1.23h-2.46V37.23A1.23,1.23,0,0,0,21,36.207L13.93,40.92H3.23A1.23,1.23,0,0,0,2,42.15V56.909a1.23,1.23,0,0,0,1.23,1.23h7.9a22.152,22.152,0,0,0-1.75,8.609,1.23,1.23,0,0,0,1.23,1.23H67.186a1.23,1.23,0,0,0,1.23-1.23A22.138,22.138,0,0,0,46.277,44.609ZM44.8,47.069,42.753,58.139H35.044l-2.05-11.069ZM4.46,43.38H14.3a1.237,1.237,0,0,0,.683-.207l5.467-3.644V42.15a1.23,1.23,0,0,0,1.23,1.23h2.46v12.3H4.46Zm7.416,22.138a19.225,19.225,0,0,1,1.968-7.379H25.368a1.23,1.23,0,0,0,1.23-1.23V47.7a19.84,19.84,0,0,1,3.9-.59l2.309,12.486a1.23,1.23,0,0,0,1.21,1.006h9.753a1.23,1.23,0,0,0,1.21-1.006l2.307-12.474a19.638,19.638,0,0,1,18.626,18.4Z" transform="translate(0 7.817)" fill="#7fb539"/>
    <path id="Path_4552" data-name="Path 4552" d="M54,10h4.92v2.46H54Z" transform="translate(11.956 1.839)" fill="#7fb539"/>
    <path id="Path_4553" data-name="Path 4553" d="M3.23,14.3H16.39l7.07,4.713a1.23,1.23,0,0,0,1.909-1.023V14.3h2.46a1.23,1.23,0,0,0,1.23-1.23V3.23A1.23,1.23,0,0,0,27.828,2H3.23A1.23,1.23,0,0,0,2,3.23v9.839A1.23,1.23,0,0,0,3.23,14.3ZM4.46,4.46H26.6v7.379h-2.46a1.23,1.23,0,0,0-1.23,1.23V15.69l-5.467-3.644a1.237,1.237,0,0,0-.683-.207H4.46Z" transform="translate(0 0)" fill="#7fb539"/>
    <path id="Path_4554" data-name="Path 4554" d="M6,6h4.92V8.46H6Z" transform="translate(0.92 0.92)" fill="#7fb539"/>
    <path id="Path_4555" data-name="Path 4555" d="M12,6h4.92V8.46H12Z" transform="translate(2.299 0.92)" fill="#7fb539"/>
    <path id="Path_4556" data-name="Path 4556" d="M18,6h2.46V8.46H18Z" transform="translate(3.679 0.92)" fill="#7fb539"/>
    <path id="Path_4557" data-name="Path 4557" d="M6,48H8.46v2.46H6Z" transform="translate(0.92 10.576)" fill="#7fb539"/>
    <path id="Path_4558" data-name="Path 4558" d="M10,48h4.92v2.46H10Z" transform="translate(1.839 10.576)" fill="#7fb539"/>
    <path id="Path_4559" data-name="Path 4559" d="M16,48h2.46v2.46H16Z" transform="translate(3.219 10.576)" fill="#7fb539"/>
    <path id="Path_4560" data-name="Path 4560" d="M12,44h7.379v2.46H12Z" transform="translate(2.299 9.656)" fill="#7fb539"/>
    <path id="Path_4561" data-name="Path 4561" d="M6,44h4.92v2.46H6Z" transform="translate(0.92 9.656)" fill="#7fb539"/>
  </g>
</svg>
