<svg xmlns="http://www.w3.org/2000/svg" width="82" height="71.748" viewBox="0 0 82 71.748">
  <g id="credit-card" transform="translate(0 -32.008)">
    <path id="Path_23" data-name="Path 23" d="M76.875,127.992H5.125A5.133,5.133,0,0,0,0,133.117v46.125a5.13,5.13,0,0,0,5.125,5.125h71.75A5.127,5.127,0,0,0,82,179.242V133.117A5.13,5.13,0,0,0,76.875,127.992Z" transform="translate(0 -80.612)" fill="#7fb539"/>
    <rect id="Rectangle_18" data-name="Rectangle 18" width="82" height="15.375" transform="translate(0 57.63)" fill="#455a64"/>
    <g id="Group_30" data-name="Group 30" transform="translate(10.25 47.38)">
      <path id="Path_24" data-name="Path 24" d="M76.813,357.117H66.563a2.563,2.563,0,0,1,0-5.125h10.25a2.563,2.563,0,0,1,0,5.125Z" transform="translate(-64 -316.117)" fill="#fafafa"/>
      <path id="Path_25" data-name="Path 25" d="M270.125,153.34V133.117A5.13,5.13,0,0,0,265,127.992H224v5.125c0,16.052,6.109,25.825,21.812,34.865a7.7,7.7,0,0,0,7.641-.01C261.223,163.508,266.635,158.85,270.125,153.34Z" transform="translate(-198.375 -127.992)" fill="#fafafa"/>
    </g>
    <path id="Path_26" data-name="Path 26" d="M295.447,39.9,277.51,32.216a2.572,2.572,0,0,0-2.024,0L257.548,39.9A2.556,2.556,0,0,0,256,42.255v10.25c0,14.1,5.212,22.34,19.224,30.412a2.576,2.576,0,0,0,2.552,0C291.788,74.866,297,66.625,297,52.505V42.255A2.553,2.553,0,0,0,295.447,39.9Z" transform="translate(-215)" fill="#7fb539"/>
    <path id="Path_27" data-name="Path 27" d="M327.69,145.989h-.108a2.572,2.572,0,0,1-2.024-1.138l-5.125-7.687a2.561,2.561,0,1,1,4.264-2.839l3.183,4.771,8.057-10.076a2.563,2.563,0,0,1,4,3.2l-10.25,12.813A2.584,2.584,0,0,1,327.69,145.989Z" transform="translate(-268.752 -80.671)" fill="#fafafa"/>
  </g>
</svg>
