<svg xmlns="http://www.w3.org/2000/svg" width="86.51" height="73.008" viewBox="0 0 86.51 73.008">
  <g id="Group_1763" data-name="Group 1763" transform="translate(0.5)">
    <g id="user" transform="translate(0 0)">
      <path id="Path_33" data-name="Path 33" d="M70.219,121H7.559A7.568,7.568,0,0,0,0,128.559v43.677A7.568,7.568,0,0,0,7.559,179.8h62.66a7.568,7.568,0,0,0,7.559-7.559V128.559A7.568,7.568,0,0,0,70.219,121Z" transform="translate(0 -107.287)" fill="#7fb539" stroke="#7fb539" stroke-width="1"/>
      <path id="Path_34" data-name="Path 34" d="M263.246,121H232v58.8h31.246a7.568,7.568,0,0,0,7.559-7.559V128.559A7.568,7.568,0,0,0,263.246,121Z" transform="translate(-193.027 -107.287)" fill="#7fb539"/>
      <g id="Group_41" data-name="Group 41" transform="translate(46 0)">
        <circle id="Ellipse_2" data-name="Ellipse 2" cx="20" cy="20" r="20" transform="translate(0 0)" fill="#6c6c6c"/>
        <path id="Path_35" data-name="Path 35" d="M392.168,41,392,41V80.979l.168,0a19.991,19.991,0,0,0,0-39.981Z" transform="translate(-372.149 -40.726)" fill="#404040"/>
      </g>
      <path id="Path_37" data-name="Path 37" d="M248.959,382.04H235.52a2.52,2.52,0,1,1,0-5.04h13.439a2.52,2.52,0,0,1,0,5.04Z" transform="translate(-193.859 -320.282)" fill="#404040"/>
      <path id="Path_38" data-name="Path 38" d="M244.927,318.04H235.52a2.52,2.52,0,1,1,0-5.04h9.407a2.52,2.52,0,1,1,0,5.04Z" transform="translate(-193.859 -267.034)" fill="#404040"/>
      <path id="Path_39" data-name="Path 39" d="M83.647,308.823H67.52A2.52,2.52,0,0,1,65,306.3v-6.72a10.583,10.583,0,0,1,21.167,0v6.72A2.52,2.52,0,0,1,83.647,308.823Z" transform="translate(-54.081 -247.065)" fill="#fff"/>
      <path id="Path_40" data-name="Path 40" d="M136.063,308.823a2.52,2.52,0,0,0,2.52-2.52v-6.72A10.6,10.6,0,0,0,128,289v19.823Z" transform="translate(-106.497 -247.065)" fill="#fff"/>
      <path id="Path_41" data-name="Path 41" d="M82.239,227.479a9.239,9.239,0,1,1,9.239-9.239A9.25,9.25,0,0,1,82.239,227.479Z" transform="translate(-60.737 -180.504)" fill="#fff"/>
      <path id="Path_42" data-name="Path 42" d="M137.239,218.239A9.25,9.25,0,0,0,128,209v18.479A9.25,9.25,0,0,0,137.239,218.239Z" transform="translate(-106.497 -180.504)" fill="#fff"/>
    </g>
    <g id="credit-card" transform="translate(57.651 11.841)">
      <path id="Path_27" data-name="Path 27" d="M327.259,144.984h-.1a2.428,2.428,0,0,1-1.911-1.074l-4.838-7.257a2.418,2.418,0,1,1,4.025-2.68l3,4.5,7.6-9.511a2.42,2.42,0,1,1,3.778,3.024l-9.676,12.094A2.439,2.439,0,0,1,327.259,144.984Z" transform="translate(-320.003 -128.063)" fill="#7fb539"/>
    </g>
  </g>
</svg>
