<svg xmlns="http://www.w3.org/2000/svg" width="118" height="19.297" viewBox="0 0 118 19.297">
  <g id="Group_1766" data-name="Group 1766" transform="translate(-505.106 -416.998)">
    <g id="star_1_" data-name="star (1)" transform="translate(505.106 416.997)">
      <path id="Path_61" data-name="Path 61" d="M20.2,19.123a.592.592,0,0,0-.478-.4l-6.271-.911-2.8-5.683a.593.593,0,0,0-1.063,0l-2.8,5.682-6.271.911A.593.593,0,0,0,.179,19.73l4.538,4.423L3.646,30.4a.593.593,0,0,0,.86.625l5.609-2.949,5.609,2.949a.593.593,0,0,0,.86-.625l-1.071-6.246L20.05,19.73A.592.592,0,0,0,20.2,19.123Z" transform="translate(0 -11.795)" fill="#fed42d"/>
      <path id="Path_62" data-name="Path 62" d="M266.086,19.123a.592.592,0,0,0-.478-.4l-6.271-.911-2.8-5.683A.593.593,0,0,0,256,11.8v16.28l5.609,2.949a.593.593,0,0,0,.86-.625L261.4,24.153l4.538-4.423A.592.592,0,0,0,266.086,19.123Z" transform="translate(-245.886 -11.795)" fill="#fcbf29"/>
    </g>
    <g id="star_1_2" data-name="star (1)" transform="translate(529.549 416.997)">
      <path id="Path_61-2" data-name="Path 61" d="M20.2,19.123a.592.592,0,0,0-.478-.4l-6.271-.911-2.8-5.683a.593.593,0,0,0-1.063,0l-2.8,5.682-6.271.911A.593.593,0,0,0,.179,19.73l4.538,4.423L3.646,30.4a.593.593,0,0,0,.86.625l5.609-2.949,5.609,2.949a.593.593,0,0,0,.86-.625l-1.071-6.246L20.05,19.73A.592.592,0,0,0,20.2,19.123Z" transform="translate(0 -11.795)" fill="#fed42d"/>
      <path id="Path_62-2" data-name="Path 62" d="M266.086,19.123a.592.592,0,0,0-.478-.4l-6.271-.911-2.8-5.683A.593.593,0,0,0,256,11.8v16.28l5.609,2.949a.593.593,0,0,0,.86-.625L261.4,24.153l4.538-4.423A.592.592,0,0,0,266.086,19.123Z" transform="translate(-245.886 -11.795)" fill="#fcbf29"/>
    </g>
    <g id="star_1_3" data-name="star (1)" transform="translate(553.992 416.997)">
      <path id="Path_61-3" data-name="Path 61" d="M20.2,19.123a.592.592,0,0,0-.478-.4l-6.271-.911-2.8-5.683a.593.593,0,0,0-1.063,0l-2.8,5.682-6.271.911A.593.593,0,0,0,.179,19.73l4.538,4.423L3.646,30.4a.593.593,0,0,0,.86.625l5.609-2.949,5.609,2.949a.593.593,0,0,0,.86-.625l-1.071-6.246L20.05,19.73A.592.592,0,0,0,20.2,19.123Z" transform="translate(0 -11.795)" fill="#fed42d"/>
      <path id="Path_62-3" data-name="Path 62" d="M266.086,19.123a.592.592,0,0,0-.478-.4l-6.271-.911-2.8-5.683A.593.593,0,0,0,256,11.8v16.28l5.609,2.949a.593.593,0,0,0,.86-.625L261.4,24.153l4.538-4.423A.592.592,0,0,0,266.086,19.123Z" transform="translate(-245.886 -11.795)" fill="#fcbf29"/>
    </g>
    <g id="star_1_4" data-name="star (1)" transform="translate(578.434 416.997)">
      <path id="Path_61-4" data-name="Path 61" d="M20.2,19.123a.592.592,0,0,0-.478-.4l-6.271-.911-2.8-5.683a.593.593,0,0,0-1.063,0l-2.8,5.682-6.271.911A.593.593,0,0,0,.179,19.73l4.538,4.423L3.646,30.4a.593.593,0,0,0,.86.625l5.609-2.949,5.609,2.949a.593.593,0,0,0,.86-.625l-1.071-6.246L20.05,19.73A.592.592,0,0,0,20.2,19.123Z" transform="translate(0 -11.795)" fill="#fed42d"/>
      <path id="Path_62-4" data-name="Path 62" d="M266.086,19.123a.592.592,0,0,0-.478-.4l-6.271-.911-2.8-5.683A.593.593,0,0,0,256,11.8v16.28l5.609,2.949a.593.593,0,0,0,.86-.625L261.4,24.153l4.538-4.423A.592.592,0,0,0,266.086,19.123Z" transform="translate(-245.886 -11.795)" fill="#fcbf29" opacity="0.02"/>
    </g>
    <g id="star_1_5" data-name="star (1)" transform="translate(602.877 416.997)" opacity="0.33">
      <path id="Path_61-5" data-name="Path 61" d="M20.2,19.123a.592.592,0,0,0-.478-.4l-6.271-.911-2.8-5.683a.593.593,0,0,0-1.063,0l-2.8,5.682-6.271.911A.593.593,0,0,0,.179,19.73l4.538,4.423L3.646,30.4a.593.593,0,0,0,.86.625l5.609-2.949,5.609,2.949a.593.593,0,0,0,.86-.625l-1.071-6.246L20.05,19.73A.592.592,0,0,0,20.2,19.123Z" transform="translate(0 -11.795)" fill="#fed42d"/>
      <path id="Path_62-5" data-name="Path 62" d="M266.086,19.123a.592.592,0,0,0-.478-.4l-6.271-.911-2.8-5.683A.593.593,0,0,0,256,11.8v16.28l5.609,2.949a.593.593,0,0,0,.86-.625L261.4,24.153l4.538-4.423A.592.592,0,0,0,266.086,19.123Z" transform="translate(-245.886 -11.795)" fill="#fcbf29"/>
    </g>
  </g>
</svg>
