<svg id="instagram_1_" data-name="instagram (1)" xmlns="http://www.w3.org/2000/svg" width="53.348" height="53.348" viewBox="0 0 53.348 53.348">
  <path id="Path_47" data-name="Path 47" d="M26.674,0A26.674,26.674,0,1,0,53.348,26.674,26.674,26.674,0,0,0,26.674,0Zm0,51.57a24.9,24.9,0,1,1,24.9-24.9A24.9,24.9,0,0,1,26.674,51.57Zm0,0"/>
  <path id="Path_48" data-name="Path 48" d="M123.563,96H100.446A4.451,4.451,0,0,0,96,100.446v23.117a4.451,4.451,0,0,0,4.446,4.446h23.117a4.451,4.451,0,0,0,4.446-4.446V100.446A4.451,4.451,0,0,0,123.563,96Zm2.667,27.563a2.668,2.668,0,0,1-2.667,2.667H100.446a2.668,2.668,0,0,1-2.667-2.667V100.446a2.668,2.668,0,0,1,2.667-2.667h23.117a2.668,2.668,0,0,1,2.667,2.667Zm0,0" transform="translate(-85.33 -85.33)"/>
  <path id="Path_49" data-name="Path 49" d="M168.891,160a8.891,8.891,0,1,0,8.891,8.891A8.891,8.891,0,0,0,168.891,160Zm0,16A7.113,7.113,0,1,1,176,168.891,7.113,7.113,0,0,1,168.891,176Zm0,0" transform="translate(-142.217 -142.217)"/>
  <path id="Path_50" data-name="Path 50" d="M306.667,128a2.667,2.667,0,1,0,2.667,2.667A2.668,2.668,0,0,0,306.667,128Zm0,3.557a.889.889,0,1,1,.889-.889A.889.889,0,0,1,306.667,131.557Zm0,0" transform="translate(-270.213 -113.774)"/>
</svg>
