<svg xmlns="http://www.w3.org/2000/svg" width="42.501" height="42.5" viewBox="0 0 42.501 42.5">
  <g id="mail" transform="translate(-0.001 -0.004)">
    <g id="Group_1321" data-name="Group 1321" transform="translate(0.001 0.004)">
      <g id="Group_1320" data-name="Group 1320" transform="translate(0 0)">
        <path id="Path_4439" data-name="Path 4439" d="M42.493,16.252a.669.669,0,0,0-.029-.144.709.709,0,0,0-.04-.122.636.636,0,0,0-.071-.108.668.668,0,0,0-.094-.11c-.011-.01-.016-.023-.028-.033l-6.812-5.291V4.96a2.125,2.125,0,0,0-2.125-2.125H25.616L22.542.449a2.1,2.1,0,0,0-2.583,0L16.884,2.835H9.208A2.125,2.125,0,0,0,7.083,4.96v5.484L.272,15.735c-.012.01-.017.023-.028.033a.664.664,0,0,0-.094.11.632.632,0,0,0-.071.108.7.7,0,0,0-.04.122.671.671,0,0,0-.029.142c0,.015-.008.028-.008.043V40.379a2.1,2.1,0,0,0,.416,1.25c0,.006,0,.014.01.02s.016.012.023.02a2.115,2.115,0,0,0,1.675.835H40.376a2.115,2.115,0,0,0,1.68-.839c.006-.007.014-.009.019-.016s.006-.013.01-.02a2.1,2.1,0,0,0,.416-1.25V16.294C42.5,16.28,42.494,16.267,42.493,16.252ZM20.825,1.566a.679.679,0,0,1,.845,0L23.3,2.835H19.2ZM2.3,41.088,20.825,26.7a.68.68,0,0,1,.845,0L40.2,41.088Zm38.782-1.1-18.543-14.4a2.1,2.1,0,0,0-2.583,0L1.416,39.983V17.373l11.608,9.014a.709.709,0,0,0,.868-1.12L2.1,16.11l4.983-3.873v5.474a.708.708,0,1,0,1.417,0V4.96a.708.708,0,0,1,.708-.708H33.293A.708.708,0,0,1,34,4.96V17.711a.708.708,0,0,0,1.417,0V12.237L40.4,16.11,28.587,25.284a.708.708,0,1,0,.868,1.119l11.629-9.03v22.61Z" transform="translate(-0.001 -0.004)" fill="#7fb539"/>
        <path id="Path_4440" data-name="Path 4440" d="M170.575,79.571V76.738a8.5,8.5,0,1,0-8.5,8.5.708.708,0,1,0,0-1.417,7.084,7.084,0,1,1,7.084-7.084v2.834a1.417,1.417,0,0,1-2.834,0V76.738a.708.708,0,0,0-1.417,0,2.833,2.833,0,1,1-2.833-2.833.708.708,0,1,0,0-1.417,4.25,4.25,0,1,0,2.864,7.382,2.826,2.826,0,0,0,5.637-.3Z" transform="translate(-140.825 -62.573)" fill="#7fb539"/>
      </g>
    </g>
  </g>
</svg>
