<svg xmlns="http://www.w3.org/2000/svg" width="289.835" height="146.925" viewBox="0 0 289.835 146.925">
  <g id="mail-send" transform="translate(0 -85.26)">
    <path id="Path_4567" data-name="Path 4567" d="M292.6,232.064c.109-.022.215-.051.323-.079.091-.023.184-.043.273-.07.1-.032.207-.071.309-.108s.182-.062.272-.1.189-.087.283-.132.184-.084.274-.132.174-.1.262-.154.18-.1.267-.163.179-.131.269-.2.153-.109.226-.169c.136-.111.265-.23.391-.353.023-.022.047-.04.07-.063s.044-.049.066-.074c.121-.124.238-.251.349-.386.065-.079.121-.161.181-.242s.127-.165.185-.252.116-.189.173-.285c.048-.08.1-.159.143-.242s.1-.2.142-.294.085-.173.122-.263.072-.194.107-.292.071-.19.1-.287.052-.2.077-.3.053-.2.072-.3c.023-.118.038-.237.054-.356.012-.084.028-.167.036-.251a6.272,6.272,0,0,0,.032-.627V91.546a6.285,6.285,0,0,0-6.286-6.286H93.381c-.055,0-.109.007-.164.008-.12,0-.239.008-.358.018-.095.008-.189.018-.282.031s-.214.029-.32.049-.2.039-.3.061-.2.049-.3.077-.194.058-.29.09-.2.069-.292.107-.181.073-.27.113-.2.092-.294.142-.164.086-.245.132c-.1.055-.193.114-.287.174-.078.05-.154.1-.23.155s-.177.128-.263.2-.156.127-.232.194-.15.132-.223.2-.163.163-.241.246c-.039.042-.081.079-.119.122-.023.025-.04.053-.062.078-.079.091-.153.187-.226.283-.054.07-.109.141-.159.213-.065.094-.126.19-.186.287-.049.08-.1.158-.146.24s-.1.19-.147.287-.089.176-.128.266-.077.193-.113.289-.073.189-.1.284-.056.194-.083.292-.055.2-.078.3-.035.191-.052.287-.037.218-.05.327c-.011.091-.016.183-.023.275-.008.117-.016.235-.018.353,0,.034-.005.068-.005.1v38.763a6.286,6.286,0,0,0,12.571,0V105.5l55.884,49.477a6.35,6.35,0,0,0-.834.693l-55.05,55.051V169.418a6.286,6.286,0,1,0-12.571,0v7.68H54.619a6.286,6.286,0,0,0,0,12.571H87.094V225.9a6.285,6.285,0,0,0,6.286,6.286H291.374c.207,0,.414-.011.62-.031.1-.009.189-.028.284-.041S292.495,232.085,292.6,232.064Zm-7.512-21.339-55.051-55.051c-.035-.035-.073-.065-.109-.1l41.387-35.113a6.285,6.285,0,0,0-8.133-9.585l-70.717,60-82.5-73.045H285.089V210.725Zm-121.484-46.16a6.263,6.263,0,0,0,1.1-1.479L188.211,183.9a6.286,6.286,0,0,0,8.234.087L220.4,163.66a6.318,6.318,0,0,0,.746.905L276.2,219.616H108.555Z" transform="translate(-7.826 0)" fill="#fff"/>
    <path id="Path_4568" data-name="Path 4568" d="M6.286,168.247H112.442a6.286,6.286,0,1,0,0-12.571H6.286a6.286,6.286,0,1,0,0,12.571Z" transform="translate(0 -11.402)" fill="#fff"/>
    <path id="Path_4569" data-name="Path 4569" d="M19.411,126.916H67.076a6.286,6.286,0,1,0,0-12.571H19.411a6.286,6.286,0,1,0,0,12.571Z" transform="translate(-2.125 -4.71)" fill="#fff"/>
    <path id="Path_4570" data-name="Path 4570" d="M52.38,226.51H6.286a6.286,6.286,0,0,0,0,12.571H52.38a6.286,6.286,0,0,0,0-12.571Z" transform="translate(0 -22.872)" fill="#fff"/>
  </g>
</svg>
