<svg xmlns="http://www.w3.org/2000/svg" width="47.5" height="39.839" viewBox="0 0 47.5 39.839">
  <g id="map" transform="translate(-1 -6)">
    <path id="Path_4437" data-name="Path 4437" d="M44.669,16.726a3.838,3.838,0,0,0-3.753,3.065H33.56l1.149-1.532a7.661,7.661,0,1,0-12.258,0L23.6,19.79H8.584A3.831,3.831,0,0,0,1,20.556V42.008a3.835,3.835,0,0,0,3.831,3.831H44.669A3.835,3.835,0,0,0,48.5,42.008V20.556A3.835,3.835,0,0,0,44.669,16.726ZM40.839,38.177H37.774V35.113h3.065Zm0-4.6H37.774a1.534,1.534,0,0,0-1.532,1.532v3.065a1.534,1.534,0,0,0,1.532,1.532h3.065v1.532H37.774a1.534,1.534,0,0,0-1.532,1.532v1.532H34.71V35.879a2.3,2.3,0,0,0-2.3-2.3h-6.9a2.3,2.3,0,0,0-2.3,2.3v8.427H21.685v-9.96a.765.765,0,0,0-.766-.766H15.556a.765.765,0,0,0-.766.766v.6a17.419,17.419,0,0,1-2.726,9.355H10.138a17.4,17.4,0,0,0,3.12-9.96.765.765,0,0,0-.766-.766H8.661V32.048h2.3a2.3,2.3,0,0,0,2.3-2.3V27.576a1.531,1.531,0,0,1,1.048-1.453l3.751-1.25a3.062,3.062,0,0,0,2.1-2.907v-.642h1.532v1.284a3.825,3.825,0,0,1-2.619,3.634l-3.228,1.076A1.531,1.531,0,0,0,14.79,28.77v.98a2.3,2.3,0,0,0,2.3,2.3H32.411a2.3,2.3,0,0,0,2.3-2.3V21.323h1.532V29.75a2.3,2.3,0,0,0,2.3,2.3h2.3ZM33.177,44.306H24.75V35.879a.766.766,0,0,1,.766-.766h6.9a.766.766,0,0,1,.766.766Zm-13.024,0H13.862a18.931,18.931,0,0,0,2.46-9.194h3.831ZM8.661,30.516V21.323h9.96v.642a1.531,1.531,0,0,1-1.048,1.453l-3.751,1.25a3.062,3.062,0,0,0-2.1,2.907V29.75a.766.766,0,0,1-.766.766Zm32.177,0h-2.3a.766.766,0,0,1-.766-.766V21.323h3.065ZM28.581,7.532a6.13,6.13,0,0,1,4.9,9.807l-4.9,6.537-4.9-6.537a6.13,6.13,0,0,1,4.9-9.807Zm2.3,17.621c0,.83-1.053,1.532-2.3,1.532s-2.3-.7-2.3-1.532a1.306,1.306,0,0,1,.589-1l1.1,1.462a.766.766,0,0,0,1.226,0l1.1-1.462A1.306,1.306,0,0,1,30.879,25.153Zm-4.93-2.233a2.812,2.812,0,0,0-1.2,2.233c0,1.69,1.718,3.065,3.831,3.065s3.831-1.374,3.831-3.065a2.812,2.812,0,0,0-1.2-2.233l1.2-1.6h.766V29.75a.766.766,0,0,1-.766.766H17.089a.766.766,0,0,1-.766-.766v-.98l3.228-1.076a5.356,5.356,0,0,0,3.667-5.087V21.323H24.75ZM2.532,20.556a2.3,2.3,0,1,1,4.6,0V38.945a3.825,3.825,0,0,0-4.6,0Zm0,21.452a2.3,2.3,0,0,1,4.6,0,.766.766,0,0,0,1.532,0v-6.9h3.047a15.882,15.882,0,0,1-2.956,8.516l-.485.678H4.831A2.3,2.3,0,0,1,2.532,42.008Zm42.137,2.3h-6.9V42.774H41.6a.765.765,0,0,0,.766-.766,2.3,2.3,0,1,1,2.3,2.3Zm2.3-5.361a3.825,3.825,0,0,0-4.6,0V20.556a2.3,2.3,0,0,1,4.6,0Z" transform="translate(0 0)" fill="#7fb539"/>
    <path id="Path_4438" data-name="Path 4438" d="M35.831,17.661A3.831,3.831,0,1,0,32,13.831,3.835,3.835,0,0,0,35.831,17.661Zm0-6.129a2.3,2.3,0,1,1-2.3,2.3A2.3,2.3,0,0,1,35.831,11.532Z" transform="translate(-7.25 -0.935)" fill="#7fb539"/>
  </g>
</svg>
