<svg xmlns="http://www.w3.org/2000/svg" width="40.04" height="40.037" viewBox="0 0 40.04 40.037">
  <g id="Page-1" transform="translate(-0.003 -0.008)">
    <g id="_012---Landline-Phone" data-name="012---Landline-Phone" transform="translate(0.003 0.009)">
      <path id="Shape" d="M39.641,20.541l-2.216,5.986a1.341,1.341,0,0,1-1.568.881L31.2,26.334l-1.8-.414a1.335,1.335,0,0,1-1.034-1.3V21.636a1.353,1.353,0,0,0-.547-1.081,12.5,12.5,0,0,0-7.461-2.216,12.5,12.5,0,0,0-7.461,2.216,1.353,1.353,0,0,0-.547,1.081v2.983a1.335,1.335,0,0,1-1.034,1.3l-1.8.414L4.85,27.409a1.341,1.341,0,0,1-1.568-.881L1.066,20.541a1.339,1.339,0,0,1,.427-1.462c2.463-1.962,8.8-6.08,18.86-6.08s16.4,4.118,18.86,6.08A1.339,1.339,0,0,1,39.641,20.541Z" transform="translate(-0.334 -4.33)" fill="none"/>
      <path id="Shape-2" data-name="Shape" d="M39.039,40.739v4.285A1.339,1.339,0,0,1,37.7,46.358H4.335A1.339,1.339,0,0,1,3,45.023V40.739a1.348,1.348,0,0,1,.207-.714l6.967-11.032,1.8-.414a1.335,1.335,0,0,0,1.034-1.3V24.294a1.353,1.353,0,0,1,.547-1.081A12.5,12.5,0,0,1,21.019,21a12.5,12.5,0,0,1,7.461,2.216,1.353,1.353,0,0,1,.547,1.081v2.983a1.335,1.335,0,0,0,1.034,1.3l1.8.414,6.967,11.032A1.348,1.348,0,0,1,39.039,40.739Z" transform="translate(-1 -6.988)" fill="none"/>
      <ellipse id="Oval" cx="5.938" cy="7.918" rx="5.938" ry="7.918" transform="translate(15.835 18.787)" fill="none"/>
      <path id="Shape-3" data-name="Shape" d="M3.282,26.528a1.341,1.341,0,0,0,1.568.881l.934-.216a1.329,1.329,0,0,1-.5-.667L3.068,20.542A1.339,1.339,0,0,1,3.5,19.08a30.22,30.22,0,0,1,17.849-6.064c-7.208-.2-14.514,1.811-19.851,6.064a1.339,1.339,0,0,0-.427,1.462Z" transform="translate(-0.334 -4.33)" fill="none"/>
      <path id="Shape-4" data-name="Shape" d="M4.333,50.345h2A1.339,1.339,0,0,1,5,49.01V44.726c0-.547-.4.252,7.174-11.746l-2.344.541C2.613,44.944,3,44.187,3,44.726V49.01A1.339,1.339,0,0,0,4.333,50.345Z" transform="translate(-0.998 -10.975)" fill="none"/>
      <path id="Rectangle-path" d="M0,0H5.339V1.335H0Z" transform="translate(1.628 32.68) rotate(-57.709)" fill="none"/>
      <g id="Group_1319" data-name="Group 1319" transform="translate(0 0)">
        <path id="Shape-5" data-name="Shape" d="M35.831,27.78a1.983,1.983,0,0,0,1.885-1.349l2.224-6.006a2,2,0,0,0-.645-2.193C36.376,15.9,29.991,12,20.022,12S3.671,15.9.749,18.228a2.007,2.007,0,0,0-.637,2.214l2.209,5.968a1.992,1.992,0,0,0,2.352,1.318l3.074-.711L4.5,32.162a.668.668,0,0,0,1.129.714l3.97-6.285,1.535-.354a1.994,1.994,0,0,0,1.552-1.951V21.3a.667.667,0,0,1,.277-.543,11.766,11.766,0,0,1,7.064-2.086,11.762,11.762,0,0,1,7.064,2.086.667.667,0,0,1,.278.543v2.983a1.994,1.994,0,0,0,1.552,1.951l1.535.354,6.819,10.8a.682.682,0,0,1,.105.36v4.285a.667.667,0,0,1-.667.667H3.338a.667.667,0,0,1-.667-.667V37.748a.682.682,0,0,1,.105-.36.669.669,0,0,0-1.135-.707,2.014,2.014,0,0,0-.306,1.068v4.285a2,2,0,0,0,2,2H36.707a2,2,0,0,0,2-2V37.748a2.019,2.019,0,0,0-.31-1.068l-6.1-9.664,3.07.711A2.032,2.032,0,0,0,35.831,27.78Zm-4.814-2.428h-.005l-1.8-.414a.667.667,0,0,1-.517-.651V21.3a2.019,2.019,0,0,0-.82-1.616,13.1,13.1,0,0,0-7.856-2.347,13.1,13.1,0,0,0-7.857,2.348,2.018,2.018,0,0,0-.819,1.616v2.983a.667.667,0,0,1-.517.65L4.37,26.427a.667.667,0,0,1-.79-.46L1.37,20a.662.662,0,0,1,.21-.724,29.606,29.606,0,0,1,18.442-5.94,29.606,29.606,0,0,1,18.442,5.94.655.655,0,0,1,.217.707l-2.224,6.006a.667.667,0,0,1-.783.44Z" transform="translate(-0.003 -3.997)" fill="#7fb539"/>
        <path id="Shape-6" data-name="Shape" d="M5.132,46.463a.667.667,0,0,1-.007-1.335h.007a.667.667,0,0,1,0,1.335Z" transform="translate(-1.486 -15.016)" fill="#7fb539"/>
        <path id="Shape-7" data-name="Shape" d="M33.682,37.341a7.341,7.341,0,1,0-7.341,7.341A7.341,7.341,0,0,0,33.682,37.341Zm-13.348,0a6.006,6.006,0,1,1,6.006,6.006A6.006,6.006,0,0,1,20.335,37.341Z" transform="translate(-6.322 -9.984)" fill="#7fb539"/>
        <path id="Shape-8" data-name="Shape" d="M31,40a2,2,0,1,0-2,2A2,2,0,0,0,31,40Zm-2.67,0A.667.667,0,1,1,29,40.67.667.667,0,0,1,28.335,40Z" transform="translate(-8.982 -12.645)" fill="#7fb539"/>
        <path id="Shape-9" data-name="Shape" d="M21.422,7.348a.667.667,0,0,0,.944.944,6.681,6.681,0,0,1,9.438,0,.667.667,0,1,0,.944-.944A8.017,8.017,0,0,0,21.422,7.348Z" transform="translate(-7.065 -1.671)" fill="#7fb539"/>
        <path id="Shape-10" data-name="Shape" d="M33.7,4.66a.667.667,0,0,0,.472-1.139,12.027,12.027,0,0,0-16.989,0,.667.667,0,0,0,.944.944,10.691,10.691,0,0,1,15.1,0,.667.667,0,0,0,.472.2Z" transform="translate(-5.653 -0.009)" fill="#7fb539"/>
      </g>
    </g>
  </g>
</svg>
