<svg id="facebook" xmlns="http://www.w3.org/2000/svg" width="53.348" height="53.348" viewBox="0 0 53.348 53.348">
  <path id="Path_45" data-name="Path 45" d="M26.674,0A26.674,26.674,0,1,0,53.348,26.674,26.7,26.7,0,0,0,26.674,0Zm0,50.3A23.622,23.622,0,1,1,50.3,26.674,23.649,23.649,0,0,1,26.674,50.3Z" fill="#fff"/>
  <path id="Path_46" data-name="Path 46" d="M125.77,71.952h-3.617a5.375,5.375,0,0,0-5.369,5.369V81.39h-3.37a1.526,1.526,0,0,0,0,3.052h3.37V98.571a1.526,1.526,0,0,0,3.052,0V84.442h5.214a1.526,1.526,0,0,0,0-3.052h-5.214V77.321A2.32,2.32,0,0,1,122.153,75h3.617a1.526,1.526,0,0,0,0-3.052Z" transform="translate(-92.918 -59.753)" fill="#fff"/>
</svg>
