<svg xmlns="http://www.w3.org/2000/svg" width="53.35" height="53.35" viewBox="0 0 53.35 53.35">
  <g id="Group_1764" data-name="Group 1764" transform="translate(-357.65 -3514)">
    <circle id="Ellipse_4" data-name="Ellipse 4" cx="26.675" cy="26.675" r="26.675" transform="translate(357.65 3514)" fill="#007ab9"/>
    <g id="linked-in-logo-of-two-letters" transform="translate(373.65 3507.084)">
      <g id="Group_54" data-name="Group 54" transform="translate(0 23.916)">
        <path id="Path_54" data-name="Path 54" d="M.689,192.293H3.45a.689.689,0,0,0,.689-.689V179.539a.689.689,0,0,0-.689-.689H.689a.689.689,0,0,0-.689.689V191.6A.689.689,0,0,0,.689,192.293Z" transform="translate(0 -172.899)" fill="#fff"/>
        <path id="Path_55" data-name="Path 55" d="M.689,27.746H3.45a.689.689,0,0,0,.689-.689V24.605a.689.689,0,0,0-.689-.689H.689A.689.689,0,0,0,0,24.605v2.451A.689.689,0,0,0,.689,27.746Z" transform="translate(0 -23.916)" fill="#fff"/>
        <path id="Path_56" data-name="Path 56" d="M194.764,171.4a4.2,4.2,0,0,0-1.716-1.259,6.213,6.213,0,0,0-2.5-.493,6.133,6.133,0,0,0-4.713,2.123c-.256.282-.443.22-.443-.161v-.919A.689.689,0,0,0,184.7,170h-2.466a.689.689,0,0,0-.689.689v12.064a.689.689,0,0,0,.689.689h2.76a.689.689,0,0,0,.689-.689v-4.2a13.5,13.5,0,0,1,.317-3.594,2.968,2.968,0,0,1,1.171-1.561,3.319,3.319,0,0,1,1.93-.589,2.463,2.463,0,0,1,1.436.413,2.3,2.3,0,0,1,.862,1.156,12.335,12.335,0,0,1,.265,3.277v5.094a.689.689,0,0,0,.689.689h2.76a.689.689,0,0,0,.689-.689V175.92a12.938,12.938,0,0,0-.228-2.784A4.56,4.56,0,0,0,194.764,171.4Z" transform="translate(-174.571 -164.048)" fill="#fff"/>
      </g>
    </g>
  </g>
</svg>
