<svg id="twitter" xmlns="http://www.w3.org/2000/svg" width="53.348" height="53.348" viewBox="0 0 53.348 53.348">
  <g id="Group_56" data-name="Group 56" transform="translate(0 0)">
    <g id="Group_55" data-name="Group 55">
      <path id="Path_57" data-name="Path 57" d="M45.535,7.813A26.674,26.674,0,1,0,7.813,45.535,26.674,26.674,0,1,0,45.535,7.813ZM26.674,51.663A24.989,24.989,0,1,1,51.663,26.674,25.018,25.018,0,0,1,26.674,51.663Z" transform="translate(0 0)"/>
    </g>
  </g>
  <g id="Group_58" data-name="Group 58" transform="translate(10.959 13.477)">
    <g id="Group_57" data-name="Group 57">
      <path id="Path_58" data-name="Path 58" d="M139.683,132.79a.864.864,0,0,0-.925-.116,13.089,13.089,0,0,1-1.334.532,7.675,7.675,0,0,0,1.062-2.025.874.874,0,0,0-.163-.878.843.843,0,0,0-1.038-.163,12.126,12.126,0,0,1-3.952,1.419,8.433,8.433,0,0,0-14.1,5.5,29.352,29.352,0,0,1-3.119-.79,18.912,18.912,0,0,1-8.031-5.346.873.873,0,0,0-.489-.288.844.844,0,0,0-.911.452,7.777,7.777,0,0,0,.657,8.014.844.844,0,0,0-.814.3.868.868,0,0,0-.184.517c0,.085-.006.171-.006.258a7.274,7.274,0,0,0,2.723,5.688.847.847,0,0,0-.282.321.862.862,0,0,0-.045.644,7.466,7.466,0,0,0,4.823,4.874,13.177,13.177,0,0,1-6.843,1.921c-.214,0-.434-.006-.654-.016a.844.844,0,0,0-.872.7.866.866,0,0,0,.426.878A20.221,20.221,0,0,0,127.7,154.16a.85.85,0,0,0,.1-1.288h0a.853.853,0,0,0-1.105-.083,18.494,18.494,0,0,1-17.423,2.3,14.854,14.854,0,0,0,6.92-3.2.866.866,0,0,0,.307-.824.843.843,0,0,0-.8-.681,5.783,5.783,0,0,1-4.866-2.924,8.059,8.059,0,0,0,1.4-.192.871.871,0,0,0,.683-.72.843.843,0,0,0-.634-.927,5.587,5.587,0,0,1-4.182-4.507,7.689,7.689,0,0,0,1.985.2.843.843,0,0,0,.812-.747.868.868,0,0,0-.424-.83,6.081,6.081,0,0,1-2.722-6.715,20.587,20.587,0,0,0,7.824,4.847,22.639,22.639,0,0,0,4.026.917c.072,0,.414.017.415.017a.843.843,0,0,0,.878-.875c0-.049,0-.1,0-.148a6.747,6.747,0,0,1,11.558-4.733.833.833,0,0,0,.708.245,13.873,13.873,0,0,0,2.5-.587,6.028,6.028,0,0,1-1.511,1.2.846.846,0,0,0-.367,1.085l.012.028a.843.843,0,0,0,.848.492,14.884,14.884,0,0,0,2.058-.343,13.6,13.6,0,0,1-1.964,1.672.838.838,0,0,0-.356.715l0,.053c0,.058,0,.115,0,.173v.076a18.443,18.443,0,0,1-4.758,12.294.85.85,0,0,0,1.271,1.129,20.062,20.062,0,0,0,5.172-13.327,15.181,15.181,0,0,0,3.775-4.073A.842.842,0,0,0,139.683,132.79Z" transform="translate(-105.176 -129.347)"/>
    </g>
  </g>
</svg>
